<svg width="259" height="33" viewBox="0 0 259 33" fill="none" xmlns="http://www.w3.org/2000/svg">
<path d="M0.822 9.74H4.854V32H0.822V9.74ZM2.838 5.456C2.054 5.456 1.396 5.204 0.864 4.7C0.36 4.196 0.108 3.58 0.108 2.852C0.108 2.124 0.36 1.508 0.864 1.004C1.396 0.471999 2.054 0.205999 2.838 0.205999C3.622 0.205999 4.266 0.457999 4.77 0.961999C5.302 1.438 5.568 2.04 5.568 2.768C5.568 3.524 5.302 4.168 4.77 4.7C4.266 5.204 3.622 5.456 2.838 5.456ZM16.2911 6.254H6.21113V2.6H30.5291V6.254H20.4491V32H16.2911V6.254ZM47.2415 9.53C50.0695 9.53 52.3095 10.356 53.9615 12.008C55.6415 13.632 56.4815 16.026 56.4815 19.19V32H52.4495V19.652C52.4495 17.496 51.9315 15.872 50.8955 14.78C49.8595 13.688 48.3755 13.142 46.4435 13.142C44.2595 13.142 42.5375 13.786 41.2775 15.074C40.0175 16.334 39.3875 18.154 39.3875 20.534V32H35.3555V0.835998H39.3875V12.89C40.2275 11.826 41.3195 11 42.6635 10.412C44.0355 9.824 45.5615 9.53 47.2415 9.53ZM68.6474 13.478C69.3474 12.19 70.3834 11.21 71.7554 10.538C73.1274 9.866 74.7934 9.53 76.7534 9.53V13.436C76.5294 13.408 76.2214 13.394 75.8294 13.394C73.6454 13.394 71.9234 14.052 70.6634 15.368C69.4314 16.656 68.8154 18.504 68.8154 20.912V32H64.7834V9.74H68.6474V13.478ZM82.5629 9.74H86.5949V32H82.5629V9.74ZM84.5789 5.456C83.7949 5.456 83.1369 5.204 82.6049 4.7C82.1009 4.196 81.8489 3.58 81.8489 2.852C81.8489 2.124 82.1009 1.508 82.6049 1.004C83.1369 0.471999 83.7949 0.205999 84.5789 0.205999C85.3629 0.205999 86.0069 0.457999 86.5109 0.961999C87.0429 1.438 87.3089 2.04 87.3089 2.768C87.3089 3.524 87.0429 4.168 86.5109 4.7C86.0069 5.204 85.3629 5.456 84.5789 5.456ZM114.831 9.74L105.087 32H100.971L91.2273 9.74H95.4273L103.071 27.59L110.883 9.74H114.831ZM138.937 20.996C138.937 21.304 138.909 21.71 138.853 22.214H120.793C121.045 24.174 121.899 25.756 123.355 26.96C124.839 28.136 126.673 28.724 128.857 28.724C131.517 28.724 133.659 27.828 135.283 26.036L137.509 28.64C136.501 29.816 135.241 30.712 133.729 31.328C132.245 31.944 130.579 32.252 128.731 32.252C126.379 32.252 124.293 31.776 122.473 30.824C120.653 29.844 119.239 28.486 118.231 26.75C117.251 25.014 116.761 23.054 116.761 20.87C116.761 18.714 117.237 16.768 118.189 15.032C119.169 13.296 120.499 11.952 122.179 11C123.887 10.02 125.805 9.53 127.933 9.53C130.061 9.53 131.951 10.02 133.603 11C135.283 11.952 136.585 13.296 137.509 15.032C138.461 16.768 138.937 18.756 138.937 20.996ZM127.933 12.932C126.001 12.932 124.377 13.52 123.061 14.696C121.773 15.872 121.017 17.412 120.793 19.316H135.073C134.849 17.44 134.079 15.914 132.763 14.738C131.475 13.534 129.865 12.932 127.933 12.932Z" fill="white"/>
<path d="M171.5 2.6L158.606 32H154.448L141.512 2.6H146.048L156.632 26.75L167.3 2.6H171.5ZM193.937 20.996C193.937 21.304 193.909 21.71 193.853 22.214H175.793C176.045 24.174 176.899 25.756 178.355 26.96C179.839 28.136 181.673 28.724 183.857 28.724C186.517 28.724 188.659 27.828 190.283 26.036L192.509 28.64C191.501 29.816 190.241 30.712 188.729 31.328C187.245 31.944 185.579 32.252 183.731 32.252C181.379 32.252 179.293 31.776 177.473 30.824C175.653 29.844 174.239 28.486 173.231 26.75C172.251 25.014 171.761 23.054 171.761 20.87C171.761 18.714 172.237 16.768 173.189 15.032C174.169 13.296 175.499 11.952 177.179 11C178.887 10.02 180.805 9.53 182.933 9.53C185.061 9.53 186.951 10.02 188.603 11C190.283 11.952 191.585 13.296 192.509 15.032C193.461 16.768 193.937 18.756 193.937 20.996ZM182.933 12.932C181.001 12.932 179.377 13.52 178.061 14.696C176.773 15.872 176.017 17.412 175.793 19.316H190.073C189.849 17.44 189.079 15.914 187.763 14.738C186.475 13.534 184.865 12.932 182.933 12.932ZM200.376 9.74H204.408V32H200.376V9.74ZM202.392 5.456C201.608 5.456 200.95 5.204 200.418 4.7C199.914 4.196 199.662 3.58 199.662 2.852C199.662 2.124 199.914 1.508 200.418 1.004C200.95 0.471999 201.608 0.205999 202.392 0.205999C203.176 0.205999 203.82 0.457999 204.324 0.961999C204.856 1.438 205.122 2.04 205.122 2.768C205.122 3.524 204.856 4.168 204.324 4.7C203.82 5.204 203.176 5.456 202.392 5.456ZM224.833 9.53C227.661 9.53 229.901 10.356 231.553 12.008C233.233 13.632 234.073 16.026 234.073 19.19V32H230.041V19.652C230.041 17.496 229.523 15.872 228.487 14.78C227.451 13.688 225.967 13.142 224.035 13.142C221.851 13.142 220.129 13.786 218.869 15.074C217.609 16.334 216.979 18.154 216.979 20.534V32H212.947V9.74H216.811V13.1C217.623 11.952 218.715 11.07 220.087 10.454C221.487 9.838 223.069 9.53 224.833 9.53ZM248.759 32.252C246.939 32.252 245.189 32.014 243.509 31.538C241.829 31.034 240.513 30.404 239.561 29.648L241.241 26.456C242.221 27.156 243.411 27.716 244.811 28.136C246.211 28.556 247.625 28.766 249.053 28.766C252.581 28.766 254.345 27.758 254.345 25.742C254.345 25.07 254.107 24.538 253.631 24.146C253.155 23.754 252.553 23.474 251.825 23.306C251.125 23.11 250.117 22.9 248.801 22.676C247.009 22.396 245.539 22.074 244.391 21.71C243.271 21.346 242.305 20.73 241.493 19.862C240.681 18.994 240.275 17.776 240.275 16.208C240.275 14.192 241.115 12.582 242.795 11.378C244.475 10.146 246.729 9.53 249.557 9.53C251.041 9.53 252.525 9.712 254.009 10.076C255.493 10.44 256.711 10.93 257.663 11.546L255.941 14.738C254.121 13.562 251.979 12.974 249.515 12.974C247.807 12.974 246.505 13.254 245.609 13.814C244.713 14.374 244.265 15.116 244.265 16.04C244.265 16.768 244.517 17.342 245.021 17.762C245.525 18.182 246.141 18.49 246.869 18.686C247.625 18.882 248.675 19.106 250.019 19.358C251.811 19.666 253.253 20.002 254.345 20.366C255.465 20.702 256.417 21.29 257.201 22.13C257.985 22.97 258.377 24.146 258.377 25.658C258.377 27.674 257.509 29.284 255.773 30.488C254.065 31.664 251.727 32.252 248.759 32.252Z" fill="#5EC1F6"/>
</svg>
